<svg xmlns="http://www.w3.org/2000/svg" version="1.1" xmlns:xlink="http://www.w3.org/1999/xlink" xmlns:svgjs="http://svgjs.com/svgjs" width="189.47491mm" height="189.47493mm"><svg width="189.47491mm" height="189.47493mm" viewBox="0 0 189.47491 189.47493" version="1.1" id="SvgjsSvg1004" xml:space="preserve" xmlns="http://www.w3.org/2000/svg" xmlns:svg="http://www.w3.org/2000/svg"><defs id="SvgjsDefs1003"></defs><g id="SvgjsG1002" transform="translate(-10.262543,-53.762541)"><rect style="fill:#ffffff;stroke-width:0.264583" id="SvgjsRect1001" width="189.47491" height="189.47491" x="10.262543" y="53.762543" rx="50"></rect><path style="fill:#000000" d="m 52.40794,154.80595 c -7.749117,-17.72929 -14.198167,-32.3538 -14.331222,-32.49891 -0.205036,-0.22362 -0.232097,3.72936 -0.177501,25.92917 0.04575,18.603 0.122372,26.47413 0.264418,27.16315 0.994073,4.82192 2.720485,6.30047 7.73122,6.62127 0.860338,0.0551 1.822219,0.13923 2.137514,0.18701 l 0.573264,0.0869 v 1.84409 1.84409 H 34.759105 20.912576 v -1.83151 c 0,-2.0877 -0.03788,-2.04201 1.696687,-2.04664 1.224648,-0.003 3.752186,-0.4587 4.840386,-0.87218 1.331971,-0.50611 2.356566,-1.4366 2.98045,-2.70671 0.719016,-1.46379 1.023619,-3.0397 1.23844,-6.40727 0.2334,-3.65882 0.235146,-44.35806 0.0021,-48.19027 -0.274993,-4.52135 -0.888672,-6.60188 -2.372756,-8.04425 -1.169011,-1.13614 -2.805127,-1.67499 -6.489093,-2.13713 l -0.837848,-0.10511 v -1.84127 -1.84129 h 11.79647 11.79647 l 0.741451,1.7198 c 0.407797,0.94589 5.984018,14.02292 12.391604,29.06008 6.40758,15.03715 11.72257,27.41898 11.81109,27.51519 0.10486,0.11396 0.21265,0.0913 0.30934,-0.0652 0.0816,-0.13206 5.88712,-13.28781 12.90111,-29.23499 l 12.75272,-28.99488 h 11.080413 11.08043 v 1.83805 1.83805 l -1.19062,0.11843 c -3.25811,0.32409 -5.02719,0.9941 -6.26764,2.37379 -0.90884,1.01085 -1.43333,2.28233 -1.85121,4.48777 -0.27875,1.47118 -0.30364,3.73441 -0.30267,27.53212 9.5e-4,23.34341 0.0299,26.06988 0.29047,27.34027 0.97764,4.76665 2.6723,6.19831 7.73417,6.53384 0.82462,0.0547 1.75728,0.13847 2.07257,0.18625 l 0.57327,0.0869 v 1.84409 1.84409 H 103.63896 87.587577 v -1.83151 c 0,-2.0877 -0.0379,-2.04201 1.69669,-2.04664 1.22465,-0.003 3.75218,-0.4587 4.84038,-0.87218 1.33212,-0.50617 2.35659,-1.4366 2.980278,-2.70671 1.36364,-2.77698 1.44596,-4.74868 1.38248,-33.1124 l -0.0519,-23.19514 -0.44354,-0.0518 c -0.42851,-0.05 -0.93341,1.04874 -14.893108,32.41146 l -14.44958,32.4632 h -1.07602 -1.07601 z m 76.10185,29.33265 v -1.84409 l 0.57327,-0.0873 c 0.31529,-0.048 1.30528,-0.13365 2.19998,-0.19035 0.8947,-0.0567 2.23724,-0.25924 2.98341,-0.45008 3.28075,-0.83907 4.54134,-2.47614 5.00195,-6.49582 0.23923,-2.08763 0.23548,-52.31199 -0.004,-54.4404 -0.37002,-3.28781 -1.13689,-4.73903 -3.00779,-5.69192 -1.10069,-0.56061 -1.97071,-0.73874 -5.85059,-1.1979 l -0.83785,-0.0992 v -1.84128 -1.84128 l 17.33021,1.4e-4 c 17.23676,1.5e-4 19.38405,0.0597 22.88646,0.63505 8.95911,1.47163 15.22628,5.40894 17.9064,11.24957 1.08254,2.35911 1.39955,4.04606 1.39622,7.42983 -0.003,3.27654 -0.26366,5.16275 -1.04724,7.58472 -2.41028,7.45004 -8.70504,12.03885 -18.87274,13.75803 -3.67581,0.62152 -6.5607,0.79406 -13.27671,0.79406 h -6.06244 l 0.0752,11.68576 c 0.0816,12.68564 0.13193,13.39946 1.07505,15.26062 0.91798,1.81154 2.43399,2.82384 4.96287,3.3139 1.08433,0.21012 5.02544,0.536 7.2729,0.60136 0.16198,0.005 0.22048,0.49784 0.22048,1.8585 v 1.85208 h -17.4625 -17.4625 z m 32.01459,-37.85028 c 3.85957,-0.36393 7.26535,-1.30969 9.55606,-2.65363 1.41646,-0.83103 3.3956,-2.83765 4.1609,-4.21867 1.72563,-3.11397 2.415,-7.6782 1.88186,-12.4595 -0.42826,-3.84064 -1.56454,-6.6131 -3.50074,-8.54162 -1.39419,-1.38866 -2.59672,-2.10014 -4.70227,-2.78208 -2.73556,-0.88598 -3.97231,-0.99944 -10.89441,-0.99944 h -6.32081 l -0.42606,0.4949 -0.42606,0.49491 v 15.42419 15.42419 l 4.36562,-1.4e-4 c 2.4011,-8e-5 5.23875,-0.0825 6.30591,-0.18311 z" id="SvgjsPath1000"></path></g></svg><style>@media (prefers-color-scheme: light) { :root { filter: none; } }
</style></svg>